<?xml version="1.0" encoding="UTF-8" standalone="no"?>
<!-- Created with Inkscape (http://www.inkscape.org/) -->

<svg
   xmlns:dc="http://purl.org/dc/elements/1.1/"
   xmlns:cc="http://creativecommons.org/ns#"
   xmlns:rdf="http://www.w3.org/1999/02/22-rdf-syntax-ns#"
   xmlns:svg="http://www.w3.org/2000/svg"
   xmlns="http://www.w3.org/2000/svg"
   xmlns:sodipodi="http://sodipodi.sourceforge.net/DTD/sodipodi-0.dtd"
   xmlns:inkscape="http://www.inkscape.org/namespaces/inkscape"
   width="45mm"
   height="52mm"
   viewBox="0 0 45 52"
   version="1.1"
   id="svg8"
   inkscape:export-filename="D:\work\FlashGang\client\public\splash-logo-hand.png"
   inkscape:export-xdpi="144"
   inkscape:export-ydpi="144"
   inkscape:version="0.92.2 (5c3e80d, 2017-08-06)"
   sodipodi:docname="logos.svg">
  <defs
     id="defs2">
    <marker
       inkscape:isstock="true"
       style="overflow:visible"
       id="marker1564"
       refX="0"
       refY="0"
       orient="auto"
       inkscape:stockid="DotM">
      <path
         transform="matrix(0.4,0,0,0.4,2.96,0.4)"
         style="fill:#000000;fill-opacity:1;fill-rule:evenodd;stroke:#000000;stroke-width:1.00000003pt;stroke-opacity:1"
         d="m -2.5,-1 c 0,2.76 -2.24,5 -5,5 -2.76,0 -5,-2.24 -5,-5 0,-2.76 2.24,-5 5,-5 2.76,0 5,2.24 5,5 z"
         id="path1562"
         inkscape:connector-curvature="0" />
    </marker>
    <marker
       inkscape:isstock="true"
       style="overflow:visible"
       id="marker1530"
       refX="0"
       refY="0"
       orient="auto"
       inkscape:stockid="DotM">
      <path
         transform="matrix(0.4,0,0,0.4,2.96,0.4)"
         style="fill:#000000;fill-opacity:1;fill-rule:evenodd;stroke:#000000;stroke-width:1.00000003pt;stroke-opacity:1"
         d="m -2.5,-1 c 0,2.76 -2.24,5 -5,5 -2.76,0 -5,-2.24 -5,-5 0,-2.76 2.24,-5 5,-5 2.76,0 5,2.24 5,5 z"
         id="path1528"
         inkscape:connector-curvature="0" />
    </marker>
    <marker
       inkscape:stockid="DotM"
       orient="auto"
       refY="0"
       refX="0"
       id="marker1332"
       style="overflow:visible"
       inkscape:isstock="true"
       inkscape:collect="always">
      <path
         id="path1330"
         d="m -2.5,-1 c 0,2.76 -2.24,5 -5,5 -2.76,0 -5,-2.24 -5,-5 0,-2.76 2.24,-5 5,-5 2.76,0 5,2.24 5,5 z"
         style="fill:#000000;fill-opacity:1;fill-rule:evenodd;stroke:#000000;stroke-width:1.00000003pt;stroke-opacity:1"
         transform="matrix(0.4,0,0,0.4,2.96,0.4)"
         inkscape:connector-curvature="0" />
    </marker>
    <marker
       inkscape:stockid="DotM"
       orient="auto"
       refY="0"
       refX="0"
       id="DotM"
       style="overflow:visible"
       inkscape:isstock="true">
      <path
         id="path1080"
         d="m -2.5,-1 c 0,2.76 -2.24,5 -5,5 -2.76,0 -5,-2.24 -5,-5 0,-2.76 2.24,-5 5,-5 2.76,0 5,2.24 5,5 z"
         style="fill:#000000;fill-opacity:1;fill-rule:evenodd;stroke:#000000;stroke-width:1.00000003pt;stroke-opacity:1"
         transform="matrix(0.4,0,0,0.4,2.96,0.4)"
         inkscape:connector-curvature="0" />
    </marker>
    <marker
       inkscape:stockid="DotL"
       orient="auto"
       refY="0"
       refX="0"
       id="DotL"
       style="overflow:visible"
       inkscape:isstock="true">
      <path
         id="path1077"
         d="m -2.5,-1 c 0,2.76 -2.24,5 -5,5 -2.76,0 -5,-2.24 -5,-5 0,-2.76 2.24,-5 5,-5 2.76,0 5,2.24 5,5 z"
         style="fill:#000000;fill-opacity:1;fill-rule:evenodd;stroke:#000000;stroke-width:1.00000003pt;stroke-opacity:1"
         transform="matrix(0.8,0,0,0.8,5.92,0.8)"
         inkscape:connector-curvature="0" />
    </marker>
    <clipPath
       clipPathUnits="userSpaceOnUse"
       id="clipPath841">
      <rect
         transform="rotate(90)"
         ry="0"
         y="-136.67145"
         x="120.2591"
         height="25"
         width="34"
         id="rect843"
         style="opacity:1;fill:none;fill-opacity:1;fill-rule:evenodd;stroke:#000000;stroke-width:0.10455517;stroke-linecap:round;stroke-linejoin:round;stroke-miterlimit:4;stroke-dasharray:none;stroke-dashoffset:0;stroke-opacity:1;paint-order:stroke markers fill" />
    </clipPath>
    <clipPath
       clipPathUnits="userSpaceOnUse"
       id="clipPath845">
      <rect
         style="opacity:1;fill:none;fill-opacity:1;fill-rule:evenodd;stroke:#000000;stroke-width:0.10455517;stroke-linecap:round;stroke-linejoin:round;stroke-miterlimit:4;stroke-dasharray:none;stroke-dashoffset:0;stroke-opacity:1;paint-order:stroke markers fill"
         id="rect847"
         width="34"
         height="25"
         x="135.2262"
         y="-52.214283"
         ry="0"
         transform="rotate(90)" />
    </clipPath>
    <clipPath
       clipPathUnits="userSpaceOnUse"
       id="clipPath927">
      <circle
         r="24.452074"
         cy="115.55322"
         cx="294.73032"
         id="circle929"
         style="opacity:1;fill:#e5d100;fill-opacity:1;fill-rule:evenodd;stroke:#090000;stroke-width:0.91206801;stroke-linecap:round;stroke-linejoin:round;stroke-miterlimit:4;stroke-dasharray:none;stroke-dashoffset:0;stroke-opacity:1;paint-order:stroke markers fill" />
    </clipPath>
    <clipPath
       clipPathUnits="userSpaceOnUse"
       id="clipPath931">
      <circle
         r="24.452074"
         cy="115.55322"
         cx="294.73032"
         id="circle933"
         style="opacity:1;fill:#e5d100;fill-opacity:1;fill-rule:evenodd;stroke:#090000;stroke-width:0.91206801;stroke-linecap:round;stroke-linejoin:round;stroke-miterlimit:4;stroke-dasharray:none;stroke-dashoffset:0;stroke-opacity:1;paint-order:stroke markers fill" />
    </clipPath>
    <clipPath
       clipPathUnits="userSpaceOnUse"
       id="clipPath935">
      <circle
         r="24.452074"
         cy="115.55322"
         cx="294.73032"
         id="circle937"
         style="opacity:1;fill:#e5d100;fill-opacity:1;fill-rule:evenodd;stroke:#090000;stroke-width:0.91206801;stroke-linecap:round;stroke-linejoin:round;stroke-miterlimit:4;stroke-dasharray:none;stroke-dashoffset:0;stroke-opacity:1;paint-order:stroke markers fill" />
    </clipPath>
    <clipPath
       clipPathUnits="userSpaceOnUse"
       id="clipPath939">
      <circle
         r="24.452074"
         cy="115.55322"
         cx="294.73032"
         id="circle941"
         style="opacity:1;fill:#e5d100;fill-opacity:1;fill-rule:evenodd;stroke:#090000;stroke-width:0.91206801;stroke-linecap:round;stroke-linejoin:round;stroke-miterlimit:4;stroke-dasharray:none;stroke-dashoffset:0;stroke-opacity:1;paint-order:stroke markers fill" />
    </clipPath>
    <clipPath
       clipPathUnits="userSpaceOnUse"
       id="clipPath943">
      <circle
         r="24.452074"
         cy="115.55322"
         cx="294.73032"
         id="circle945"
         style="opacity:1;fill:#e5d100;fill-opacity:1;fill-rule:evenodd;stroke:#090000;stroke-width:0.91206801;stroke-linecap:round;stroke-linejoin:round;stroke-miterlimit:4;stroke-dasharray:none;stroke-dashoffset:0;stroke-opacity:1;paint-order:stroke markers fill" />
    </clipPath>
    <clipPath
       clipPathUnits="userSpaceOnUse"
       id="clipPath947">
      <circle
         r="24.452074"
         cy="115.55322"
         cx="294.73032"
         id="circle949"
         style="opacity:1;fill:#e5d100;fill-opacity:1;fill-rule:evenodd;stroke:#090000;stroke-width:0.91206801;stroke-linecap:round;stroke-linejoin:round;stroke-miterlimit:4;stroke-dasharray:none;stroke-dashoffset:0;stroke-opacity:1;paint-order:stroke markers fill" />
    </clipPath>
    <clipPath
       clipPathUnits="userSpaceOnUse"
       id="clipPath951">
      <circle
         r="24.452074"
         cy="115.55322"
         cx="294.73032"
         id="circle953"
         style="opacity:1;fill:#e5d100;fill-opacity:1;fill-rule:evenodd;stroke:#090000;stroke-width:0.91206801;stroke-linecap:round;stroke-linejoin:round;stroke-miterlimit:4;stroke-dasharray:none;stroke-dashoffset:0;stroke-opacity:1;paint-order:stroke markers fill" />
    </clipPath>
    <clipPath
       clipPathUnits="userSpaceOnUse"
       id="clipPath955">
      <circle
         r="24.452074"
         cy="115.55322"
         cx="294.73032"
         id="circle957"
         style="opacity:1;fill:#e5d100;fill-opacity:1;fill-rule:evenodd;stroke:#090000;stroke-width:0.91206801;stroke-linecap:round;stroke-linejoin:round;stroke-miterlimit:4;stroke-dasharray:none;stroke-dashoffset:0;stroke-opacity:1;paint-order:stroke markers fill" />
    </clipPath>
    <clipPath
       clipPathUnits="userSpaceOnUse"
       id="clipPath959">
      <circle
         r="24.452074"
         cy="115.55322"
         cx="294.73032"
         id="circle961"
         style="opacity:1;fill:#e5d100;fill-opacity:1;fill-rule:evenodd;stroke:#090000;stroke-width:0.91206801;stroke-linecap:round;stroke-linejoin:round;stroke-miterlimit:4;stroke-dasharray:none;stroke-dashoffset:0;stroke-opacity:1;paint-order:stroke markers fill" />
    </clipPath>
    <clipPath
       clipPathUnits="userSpaceOnUse"
       id="clipPath963">
      <circle
         r="24.452074"
         cy="115.55322"
         cx="294.73032"
         id="circle965"
         style="opacity:1;fill:#e5d100;fill-opacity:1;fill-rule:evenodd;stroke:#090000;stroke-width:0.91206801;stroke-linecap:round;stroke-linejoin:round;stroke-miterlimit:4;stroke-dasharray:none;stroke-dashoffset:0;stroke-opacity:1;paint-order:stroke markers fill" />
    </clipPath>
    <clipPath
       clipPathUnits="userSpaceOnUse"
       id="clipPath967">
      <circle
         r="24.452074"
         cy="115.55322"
         cx="294.73032"
         id="circle969"
         style="opacity:1;fill:#e5d100;fill-opacity:1;fill-rule:evenodd;stroke:#090000;stroke-width:0.91206801;stroke-linecap:round;stroke-linejoin:round;stroke-miterlimit:4;stroke-dasharray:none;stroke-dashoffset:0;stroke-opacity:1;paint-order:stroke markers fill" />
    </clipPath>
    <clipPath
       clipPathUnits="userSpaceOnUse"
       id="clipPath971">
      <circle
         r="24.452074"
         cy="115.55322"
         cx="294.73032"
         id="circle973"
         style="opacity:1;fill:#e5d100;fill-opacity:1;fill-rule:evenodd;stroke:#090000;stroke-width:0.91206801;stroke-linecap:round;stroke-linejoin:round;stroke-miterlimit:4;stroke-dasharray:none;stroke-dashoffset:0;stroke-opacity:1;paint-order:stroke markers fill" />
    </clipPath>
    <clipPath
       clipPathUnits="userSpaceOnUse"
       id="clipPath975">
      <circle
         r="24.452074"
         cy="115.55322"
         cx="294.73032"
         id="circle977"
         style="opacity:1;fill:#e5d100;fill-opacity:1;fill-rule:evenodd;stroke:#090000;stroke-width:0.91206801;stroke-linecap:round;stroke-linejoin:round;stroke-miterlimit:4;stroke-dasharray:none;stroke-dashoffset:0;stroke-opacity:1;paint-order:stroke markers fill" />
    </clipPath>
    <clipPath
       clipPathUnits="userSpaceOnUse"
       id="clipPath979">
      <circle
         r="24.452074"
         cy="115.55322"
         cx="294.73032"
         id="circle981"
         style="opacity:1;fill:#e5d100;fill-opacity:1;fill-rule:evenodd;stroke:#090000;stroke-width:0.91206801;stroke-linecap:round;stroke-linejoin:round;stroke-miterlimit:4;stroke-dasharray:none;stroke-dashoffset:0;stroke-opacity:1;paint-order:stroke markers fill" />
    </clipPath>
    <clipPath
       clipPathUnits="userSpaceOnUse"
       id="clipPath983">
      <circle
         r="24.452074"
         cy="115.55322"
         cx="294.73032"
         id="circle985"
         style="opacity:1;fill:#e5d100;fill-opacity:1;fill-rule:evenodd;stroke:#090000;stroke-width:0.91206801;stroke-linecap:round;stroke-linejoin:round;stroke-miterlimit:4;stroke-dasharray:none;stroke-dashoffset:0;stroke-opacity:1;paint-order:stroke markers fill" />
    </clipPath>
    <clipPath
       clipPathUnits="userSpaceOnUse"
       id="clipPath998">
      <circle
         r="24.452074"
         cy="115.55322"
         cx="294.73032"
         id="circle1000"
         style="opacity:1;fill:#e5d100;fill-opacity:1;fill-rule:evenodd;stroke:#090000;stroke-width:0.91206801;stroke-linecap:round;stroke-linejoin:round;stroke-miterlimit:4;stroke-dasharray:none;stroke-dashoffset:0;stroke-opacity:1;paint-order:stroke markers fill" />
    </clipPath>
    <clipPath
       clipPathUnits="userSpaceOnUse"
       id="clipPath4461">
      <path
         style="fill:none;stroke:#000000;stroke-width:0.26458332px;stroke-linecap:butt;stroke-linejoin:miter;stroke-opacity:1"
         d="M 83.254456,58.59558 90.738005,41.7576 99.290627,23.182369 76.30545,10.487066 63.209244,25.454159 59.066565,59.93193 72.430042,65.945493 Z"
         id="path4463"
         inkscape:connector-curvature="0" />
    </clipPath>
  </defs>
  <sodipodi:namedview
     id="base"
     pagecolor="#ffffff"
     bordercolor="#666666"
     borderopacity="1.0"
     inkscape:pageopacity="0.0"
     inkscape:pageshadow="2"
     inkscape:zoom="0.49497475"
     inkscape:cx="258.99757"
     inkscape:cy="370.45921"
     inkscape:document-units="mm"
     inkscape:current-layer="layer1"
     showgrid="false"
     inkscape:window-width="1920"
     inkscape:window-height="1017"
     inkscape:window-x="-8"
     inkscape:window-y="-8"
     inkscape:window-maximized="1" />
  <metadata
     id="metadata5">
    <rdf:RDF>
      <cc:Work
         rdf:about="">
        <dc:format>image/svg+xml</dc:format>
        <dc:type
           rdf:resource="http://purl.org/dc/dcmitype/StillImage" />
        <dc:title></dc:title>
      </cc:Work>
    </rdf:RDF>
  </metadata>
  <g
     inkscape:label="Layer 1"
     inkscape:groupmode="layer"
     id="layer1"
     transform="translate(0,-245)">
    <rect
       ry="4.0745554"
       y="79.37529"
       x="-167.75272"
       height="54.422943"
       width="36.834183"
       id="rect4442"
       style="opacity:1;fill:#00be00;fill-opacity:1;fill-rule:evenodd;stroke:#000000;stroke-width:5.69944239;stroke-linecap:round;stroke-linejoin:round;stroke-miterlimit:4;stroke-dasharray:none;stroke-dashoffset:0;stroke-opacity:1;paint-order:stroke markers fill"
       transform="rotate(23.984735)" />
    <rect
       style="opacity:1;fill:#00be00;fill-opacity:1;fill-rule:evenodd;stroke:#ffffff;stroke-width:4.40411425;stroke-linecap:round;stroke-linejoin:round;stroke-miterlimit:4;stroke-dasharray:none;stroke-dashoffset:0;stroke-opacity:1;paint-order:stroke markers fill"
       id="rect4440"
       width="36.834183"
       height="54.422943"
       x="-167.75272"
       y="79.37529"
       ry="4.0745554"
       transform="rotate(23.984735)" />
    <text
       id="text2404"
       y="96.793518"
       x="-219.75671"
       style="font-style:normal;font-variant:normal;font-weight:normal;font-stretch:normal;font-size:27.66295815px;line-height:0.85000002;font-family:Wingdings;-inkscape-font-specification:Wingdings;letter-spacing:0px;word-spacing:0px;fill:#030000;fill-opacity:1;stroke:#050000;stroke-width:1.19200003;stroke-miterlimit:4;stroke-dasharray:none;stroke-opacity:1"
       xml:space="preserve"><tspan
         style="font-style:normal;font-variant:normal;font-weight:normal;font-stretch:normal;font-family:'the enemigo';-inkscape-font-specification:'the enemigo';fill:#030000;fill-opacity:1;stroke:#050000;stroke-width:1.19200003;stroke-miterlimit:4;stroke-dasharray:none;stroke-opacity:1"
         y="96.793518"
         x="-219.75671"
         id="tspan2402"
         sodipodi:role="line">FLASH</tspan><tspan
         style="font-style:normal;font-variant:normal;font-weight:normal;font-stretch:normal;font-family:'the enemigo';-inkscape-font-specification:'the enemigo';fill:#030000;fill-opacity:1;stroke:#050000;stroke-width:1.19200003;stroke-miterlimit:4;stroke-dasharray:none;stroke-opacity:1"
         y="120.64556"
         x="-219.75671"
         sodipodi:role="line"
         id="tspan2408">GANG</tspan></text>
    <circle
       style="opacity:1;fill:#e5d100;fill-opacity:1;fill-rule:evenodd;stroke:#090000;stroke-width:0.91206801;stroke-linecap:round;stroke-linejoin:round;stroke-miterlimit:4;stroke-dasharray:none;stroke-dashoffset:0;stroke-opacity:1;paint-order:stroke markers fill"
       id="path875"
       cx="-179.43492"
       cy="213.90842"
       r="24.452074" />
    <path
       style="fill:#000000;fill-opacity:0.17587938;stroke:none;stroke-width:0.26458332px;stroke-linecap:butt;stroke-linejoin:miter;stroke-opacity:1"
       d="m 297.63838,95.356897 c -1.79268,0.02594 -3.63574,0.235317 -5.40432,0.721402 -4.40235,1.480471 -6.07198,2.806547 -6.07198,2.806547 0,0 -1.93246,2.888854 -2.25721,4.395594 -0.52906,2.4544 0.11234,8.66072 -0.0305,9.7286 -0.0893,0.66734 1.10514,5.51657 2.59003,9.96167 0.36008,2.46996 1.84021,12.69641 1.84021,14.03273 0,1.5119 -0.75605,9.54361 -0.75605,9.54361 0,0 4.72477,2.92931 6.70917,-1.98438 1.40346,-3.47525 1.71429,-9.26324 1.77922,-12.61783 7.38838,0.44567 17.79736,-1.69137 17.79736,-1.69137 0,0 0.95583,-4.0995 -2.50167,-5.86166 -3.45746,-1.76214 -10.4531,0.25735 -10.4531,0.25735 0,0 -3.83151,-1.61233 -4.86378,-3.73931 -0.0301,-0.062 -0.0572,-0.12672 -0.0822,-0.19327 0.0339,-2.42221 0.16205,-4.5069 0.49765,-4.8798 0.0914,-0.10158 0.0396,-0.10559 -0.11369,-0.0403 0.27345,-0.98007 0.54023,-1.72334 0.55192,-1.85983 0.0743,-0.86802 2.56836,-6.4462 4.44725,-7.36545 1.87891,-0.91924 4.08297,-0.83302 4.08297,-0.83302 l 3.78375,-0.22169 c 0,0 7.37595,1.68102 9.57927,0.33693 2.20329,-1.3441 1.61901,-6.414077 1.61901,-6.414077 0,0 -6.55045,0.210682 -9.11108,-0.399457 -2.56061,-0.61014 -7.81987,-2.860482 -10.48668,-3.551722 -1.01259,-0.09635 -2.06995,-0.146825 -3.14556,-0.131257 z"
       id="path987"
       inkscape:connector-curvature="0"
       clip-path="url(#clipPath998)"
       transform="translate(-474.16524,98.355186)" />
    <path
       style="fill:#fdd0b6;fill-opacity:1;stroke:#000000;stroke-width:0.26458332px;stroke-linecap:butt;stroke-linejoin:miter;stroke-opacity:1"
       d="m -191.90815,215.79828 c 0,0 1.98437,13.51264 1.98437,15.02455 0,1.5119 -0.75595,9.5439 -0.75595,9.5439 0,0 4.7247,2.92931 6.70908,-1.98438 1.98437,-4.91369 1.79538,-14.55208 1.79538,-15.21353 0,-0.66146 -0.47247,-12.56771 0.37798,-13.51265 0.85045,-0.94494 -10.11086,6.14211 -10.11086,6.14211 z"
       id="path873"
       inkscape:connector-curvature="0"
       sodipodi:nodetypes="csccssc" />
    <path
       style="fill:#fcdcc4;fill-opacity:1;stroke:#000000;stroke-width:0.26458332px;stroke-linecap:butt;stroke-linejoin:miter;stroke-opacity:1"
       d="m -192.06652,192.70435 c 0,0 -1.9323,2.88872 -2.25707,4.39545 -0.52905,2.4544 0.11225,8.66083 -0.0306,9.72871 -0.14286,1.06789 3.00148,12.84447 5.36307,16.53749 3.25689,5.09309 24.59696,0.70699 24.59696,0.70699 0,0 0.95562,-4.09952 -2.50187,-5.86168 -3.45748,-1.76214 -10.45284,0.25715 -10.45284,0.25715 0,0 -3.83165,-1.6121 -4.86392,-3.73908 -0.9861,-2.03185 0.82289,-6.61312 0.85374,-6.97338 0.0743,-0.86802 2.56811,-6.44597 4.44702,-7.36522 1.87889,-0.91924 4.0832,-0.83337 4.0832,-0.83337 l 3.78393,-0.22123 c 0,0 7.37575,1.68078 9.57905,0.33669 2.20331,-1.3441 1.61901,-6.41409 1.61901,-6.41409 0,0 -6.55016,0.21069 -9.11078,-0.39945 -2.56061,-0.61014 -7.81993,-2.86064 -10.48675,-3.55188 -2.70024,-0.25693 -5.72013,-0.18759 -8.54985,0.59015 -4.40236,1.48047 -6.0723,2.80675 -6.0723,2.80675 z"
       id="path871"
       inkscape:connector-curvature="0"
       sodipodi:nodetypes="cccsczcssscczcsccc" />
    <text
       xml:space="preserve"
       style="font-style:normal;font-variant:normal;font-weight:normal;font-stretch:normal;font-size:27.66295815px;line-height:0.85000002;font-family:Wingdings;-inkscape-font-specification:Wingdings;letter-spacing:0px;word-spacing:0px;fill:#00be00;fill-opacity:1;stroke:none;stroke-width:0.69157398"
       x="-219.37874"
       y="97.171494"
       id="text2400"><tspan
         sodipodi:role="line"
         id="tspan2398"
         x="-219.37874"
         y="97.171494"
         style="font-style:normal;font-variant:normal;font-weight:normal;font-stretch:normal;font-family:'the enemigo';-inkscape-font-specification:'the enemigo';fill:#00be00;fill-opacity:1;stroke-width:0.69157398">FLASH</tspan><tspan
         sodipodi:role="line"
         x="-219.37874"
         y="121.02354"
         style="font-style:normal;font-variant:normal;font-weight:normal;font-stretch:normal;font-family:'the enemigo';-inkscape-font-specification:'the enemigo';fill:#00be00;fill-opacity:1;stroke-width:0.69157398"
         id="tspan2406">GANG</tspan></text>
    <circle
       style="opacity:1;fill:#00be00;fill-opacity:1;fill-rule:evenodd;stroke:#090000;stroke-width:0.91206801;stroke-linecap:round;stroke-linejoin:round;stroke-miterlimit:4;stroke-dasharray:none;stroke-dashoffset:0;stroke-opacity:1;paint-order:stroke markers fill"
       id="circle4422"
       cx="-83.038284"
       cy="43.689423"
       r="24.452074" />
    <path
       transform="translate(-377.76861,-71.863801)"
       style="fill:#000000;fill-opacity:0.17587938;stroke:none;stroke-width:0.26458332px;stroke-linecap:butt;stroke-linejoin:miter;stroke-opacity:1"
       d="m 297.63838,95.356897 c -1.79268,0.02594 -3.63574,0.235317 -5.40432,0.721402 -4.40235,1.480471 -6.07198,2.806547 -6.07198,2.806547 0,0 -1.93246,2.888854 -2.25721,4.395594 -0.52906,2.4544 0.11234,8.66072 -0.0305,9.7286 -0.0893,0.66734 1.10514,5.51657 2.59003,9.96167 0.36008,2.46996 1.84021,12.69641 1.84021,14.03273 0,1.5119 -0.75605,9.54361 -0.75605,9.54361 0,0 4.72477,2.92931 6.70917,-1.98438 1.40346,-3.47525 1.71429,-9.26324 1.77922,-12.61783 7.38838,0.44567 17.79736,-1.69137 17.79736,-1.69137 0,0 0.95583,-4.0995 -2.50167,-5.86166 -3.45746,-1.76214 -10.4531,0.25735 -10.4531,0.25735 0,0 -3.83151,-1.61233 -4.86378,-3.73931 -0.0301,-0.062 -0.0572,-0.12672 -0.0822,-0.19327 0.0339,-2.42221 0.16205,-4.5069 0.49765,-4.8798 0.0914,-0.10158 0.0396,-0.10559 -0.11369,-0.0403 0.27345,-0.98007 0.54023,-1.72334 0.55192,-1.85983 0.0743,-0.86802 2.56836,-6.4462 4.44725,-7.36545 1.87891,-0.91924 4.08297,-0.83302 4.08297,-0.83302 l 3.78375,-0.22169 c 0,0 7.37595,1.68102 9.57927,0.33693 2.20329,-1.3441 1.61901,-6.414077 1.61901,-6.414077 0,0 -6.55045,0.210682 -9.11108,-0.399457 -2.56061,-0.61014 -7.81987,-2.860482 -10.48668,-3.551722 -1.01259,-0.09635 -2.06995,-0.146825 -3.14556,-0.131257 z"
       id="path4424"
       inkscape:connector-curvature="0"
       clip-path="url(#clipPath998)" />
    <path
       style="fill:#fffffc;fill-opacity:1;stroke:#000000;stroke-width:0.5;stroke-linecap:butt;stroke-linejoin:miter;stroke-miterlimit:4;stroke-dasharray:none;stroke-opacity:1"
       d="m -97.115031,40.787694 c 0,0 1.66367,13.55586 1.62786,15.06735 -0.0358,1.51147 -1.35824,8.17595 -0.98185,9.52331 0.37638,1.34735 4.65397,3.04042 6.75421,-1.82488 2.10022,-4.8653 2.13963,-14.50546 2.1553,-15.16672 0.0157,-0.66128 -0.17458,-12.57538 0.69801,-13.4999 0.8726,-0.92453 -10.25353,5.90084 -10.25353,5.90084 z"
       id="path4426"
       inkscape:connector-curvature="0"
       sodipodi:nodetypes="cszcssc" />
    <path
       sodipodi:nodetypes="cszcssc"
       inkscape:connector-curvature="0"
       id="path4428"
       d="m -96.547941,43.845074 c 0,0 1.98437,13.51264 1.98437,15.02455 0,1.5119 -1.16415,8.20584 -0.75595,9.5439 0.4082,1.33806 4.7247,2.92931 6.70908,-1.98438 1.98437,-4.91369 1.79538,-14.55208 1.79538,-15.21353 0,-0.66146 -0.47247,-12.56771 0.37798,-13.51265 0.85045,-0.94494 -10.11086,6.14211 -10.11086,6.14211 z"
       style="fill:#fffffc;fill-opacity:1;stroke:#000000;stroke-width:0.5;stroke-linecap:butt;stroke-linejoin:miter;stroke-miterlimit:4;stroke-dasharray:none;stroke-opacity:1" />
    <path
       style="fill:#fffffc;fill-opacity:1;stroke:#000000;stroke-width:0.5;stroke-linecap:butt;stroke-linejoin:miter;stroke-miterlimit:4;stroke-dasharray:none;stroke-opacity:1"
       d="m -95.478861,46.651404 c 0,0 1.98437,13.51264 1.98437,15.02455 0,1.5119 -1.16415,8.20584 -0.75595,9.5439 0.4082,1.33806 4.7247,2.92931 6.70908,-1.98438 1.98437,-4.91369 1.79538,-14.55208 1.79538,-15.21353 0,-0.66146 -0.47247,-12.56771 0.37798,-13.51265 0.85045,-0.94494 -10.11086,6.14211 -10.11086,6.14211 z"
       id="path4430"
       inkscape:connector-curvature="0"
       sodipodi:nodetypes="cszcssc" />
    <path
       style="fill:#fffffc;fill-opacity:1;stroke:#000000;stroke-width:0.5;stroke-linecap:butt;stroke-linejoin:miter;stroke-miterlimit:4;stroke-dasharray:none;stroke-opacity:1"
       d="m -95.637231,23.557484 c 0,0 -1.9323,2.8887 -2.25707,4.39544 -0.52905,2.4544 0.11225,8.66083 -0.0306,9.72871 -0.14286,1.06789 3.00148,12.84447 5.36307,16.53749 3.25689,5.09309 21.73389,2.32859 24.59696,0.70699 0.94758,-0.5367 0.95562,-4.09952 -2.50187,-5.86168 -3.45748,-1.76214 -10.45284,0.25715 -10.45284,0.25715 0,0 -3.83165,-1.6121 -4.86392,-3.73908 -0.9861,-2.03185 0.82289,-6.61312 0.85374,-6.97338 0.0743,-0.86802 2.56811,-6.44597 4.44702,-7.36522 1.87889,-0.91924 4.0832,-0.83337 4.0832,-0.83337 l 3.78393,-0.22123 c 0,0 7.37575,1.68078 9.57905,0.33669 2.20331,-1.3441 2.66513,-4.97187 1.61901,-6.41409 -1.04612,-1.44221 -6.55016,0.21069 -9.11078,-0.39944 -2.56061,-0.61014 -7.81993,-2.86064 -10.48675,-3.55188 -2.70024,-0.25694 2.40636,-5.57376 -0.42336,-4.79602 -2.2954,-0.181771 -14.96201,3.01499 -17.39721,6.15067 -1.958639,2.522038 3.19842,2.04225 3.19842,2.04225 z"
       id="path4432"
       inkscape:connector-curvature="0"
       sodipodi:nodetypes="cccsszcssscczzsccsc" />
    <path
       sodipodi:nodetypes="cc"
       inkscape:connector-curvature="0"
       id="path4434"
       d="m -95.270961,30.480714 c 0,0 -0.20045,5.27857 0.66818,9.55489"
       style="fill:none;stroke:#000000;stroke-width:0.26499999;stroke-linecap:butt;stroke-linejoin:round;stroke-miterlimit:4;stroke-dasharray:none;stroke-opacity:1;marker-start:url(#marker1332);marker-end:url(#marker1332)" />
    <path
       style="fill:none;stroke:#000000;stroke-width:0.26499999;stroke-linecap:butt;stroke-linejoin:round;stroke-miterlimit:4;stroke-dasharray:none;stroke-opacity:1;marker-start:url(#marker1530);marker-end:url(#marker1564)"
       d="m -96.641291,29.368459 c 0,0 -0.42128,5.265549 0.26755,9.574487"
       id="path4436"
       inkscape:connector-curvature="0"
       sodipodi:nodetypes="cc" />
    <path
       sodipodi:nodetypes="ccccc"
       inkscape:connector-curvature="0"
       id="path4438"
       d="m -95.753191,19.964293 c 0,0 -3.23642,1.984375 -2.74033,2.14974 0.66314,0.449338 9.63839,-3.449033 9.63839,-3.449033 0,0 -8.1935,2.906388 -8.31162,2.670153 -0.11812,-0.236236 1.41356,-1.37086 1.41356,-1.37086 z"
       style="fill:#000000;fill-opacity:1;stroke:none;stroke-width:0.26458332px;stroke-linecap:butt;stroke-linejoin:miter;stroke-opacity:1" />
    <path
       style="fill:#000000;fill-opacity:0.11557791;stroke:none;stroke-width:0.5;stroke-linecap:butt;stroke-linejoin:miter;stroke-miterlimit:4;stroke-dasharray:none;stroke-opacity:1"
       d="m 76.854827,13.55036 c -0.118699,0.0037 -0.26446,0.02839 -0.441317,0.077 -2.295399,-0.181771 -14.962191,3.014848 -17.397387,6.150529 -1.958636,2.522038 3.198254,2.042252 3.198254,2.042252 0,0 -1.93194,2.888858 -2.25671,4.395597 -0.52905,2.454401 0.111844,8.660726 -0.03101,9.728606 -0.0533,0.398441 0.351989,2.289352 1.002523,4.693253 0.40819,3.37643 1.464747,12.248853 1.435571,13.480314 -0.0358,1.511469 -1.358242,8.176091 -0.981852,9.52345 0.10564,0.378166 0.518431,0.783521 1.104326,1.0635 -0.05981,0.897094 -0.06205,1.620676 0.04496,1.971456 0.106873,0.350326 0.483206,0.717071 1.013892,0.980818 -0.05054,0.830641 -0.046,1.493171 0.05529,1.825212 0.408201,1.338062 4.724771,2.929316 6.709151,-1.984375 1.353757,-3.352165 1.689106,-8.848704 1.769918,-12.248348 6.691795,0.671473 15.859383,-0.957942 17.806666,-2.060855 0.947579,-0.5367 0.955315,-4.099497 -2.502174,-5.861659 -3.45748,-1.762138 -10.452592,0.25735 -10.452592,0.25735 0,0 -3.832032,-1.612326 -4.864302,-3.739306 -0.02992,-0.06165 -0.05675,-0.125566 -0.08165,-0.19172 0.03388,-2.422729 0.161464,-4.508397 0.497127,-4.881356 0.09147,-0.101634 0.03979,-0.105696 -0.113688,-0.04031 0.273453,-0.980069 0.540733,-1.723345 0.552421,-1.859835 0.0743,-0.868021 2.567847,-6.446192 4.446757,-7.365442 1.87889,-0.91924 4.082955,-0.833024 4.082955,-0.833024 l 3.784265,-0.221176 c 0,0 7.375443,1.680504 9.578745,0.336414 2.20331,-1.3441 2.665142,-4.971859 1.619022,-6.414079 -1.04612,-1.44221 -6.549937,0.210672 -9.110556,-0.399459 -2.56061,-0.61014 -7.819878,-2.860481 -10.486698,-3.551721 -2.531475,-0.240881 1.798565,-4.928861 0.01809,-4.873087 z"
       id="path4444"
       inkscape:connector-curvature="0"
       clip-path="url(#clipPath4461)"
       transform="translate(-252.86607)" />
    <path
       sodipodi:nodetypes="cszcssc"
       inkscape:connector-curvature="0"
       id="path1012"
       d="m -195.20295,35.976842 c 0,0 1.66367,13.55586 1.62786,15.06735 -0.0358,1.51147 -1.35824,8.17595 -0.98185,9.52331 0.37638,1.34735 4.65397,3.04042 6.75421,-1.82488 2.10022,-4.8653 2.13963,-14.50546 2.1553,-15.16672 0.0157,-0.66128 -0.17458,-12.57538 0.69801,-13.4999 0.8726,-0.92453 -10.25353,5.90084 -10.25353,5.90084 z"
       style="fill:#fffffc;fill-opacity:1;stroke:#000000;stroke-width:0.5;stroke-linecap:butt;stroke-linejoin:miter;stroke-miterlimit:4;stroke-dasharray:none;stroke-opacity:1" />
    <path
       style="fill:#fffffc;fill-opacity:1;stroke:#000000;stroke-width:0.5;stroke-linecap:butt;stroke-linejoin:miter;stroke-miterlimit:4;stroke-dasharray:none;stroke-opacity:1"
       d="m -194.63586,39.034222 c 0,0 1.98437,13.51264 1.98437,15.02455 0,1.5119 -1.16415,8.20584 -0.75595,9.5439 0.4082,1.33806 4.7247,2.92931 6.70908,-1.98438 1.98437,-4.91369 1.79538,-14.55208 1.79538,-15.21353 0,-0.66146 -0.47247,-12.56771 0.37798,-13.51265 0.85045,-0.94494 -10.11086,6.14211 -10.11086,6.14211 z"
       id="path1010"
       inkscape:connector-curvature="0"
       sodipodi:nodetypes="cszcssc" />
    <path
       sodipodi:nodetypes="cszcssc"
       inkscape:connector-curvature="0"
       id="path1002"
       d="m -193.56678,41.840552 c 0,0 1.98437,13.51264 1.98437,15.02455 0,1.5119 -1.16415,8.20584 -0.75595,9.5439 0.4082,1.33806 4.7247,2.92931 6.70908,-1.98438 1.98437,-4.91369 1.79538,-14.55208 1.79538,-15.21353 0,-0.66146 -0.47247,-12.56771 0.37798,-13.51265 0.85045,-0.94494 -10.11086,6.14211 -10.11086,6.14211 z"
       style="fill:#fffffc;fill-opacity:1;stroke:#000000;stroke-width:0.5;stroke-linecap:butt;stroke-linejoin:miter;stroke-miterlimit:4;stroke-dasharray:none;stroke-opacity:1" />
    <path
       sodipodi:nodetypes="cccsszcssscczzsccsc"
       inkscape:connector-curvature="0"
       id="path1004"
       d="m -193.72515,18.746632 c 0,0 -1.9323,2.8887 -2.25707,4.39544 -0.52905,2.4544 0.11225,8.66083 -0.0306,9.72871 -0.14286,1.06789 3.00148,12.84447 5.36307,16.53749 3.25689,5.09309 21.73389,2.32859 24.59696,0.70699 0.94758,-0.5367 0.95562,-4.09952 -2.50187,-5.86168 -3.45748,-1.76214 -10.45284,0.25715 -10.45284,0.25715 0,0 -3.83165,-1.6121 -4.86392,-3.73908 -0.9861,-2.03185 0.82289,-6.61312 0.85374,-6.97338 0.0743,-0.86802 2.56811,-6.44597 4.44702,-7.36522 1.87889,-0.91924 4.0832,-0.83337 4.0832,-0.83337 l 3.78393,-0.22123 c 0,0 7.37575,1.68078 9.57905,0.33669 2.20331,-1.3441 2.66513,-4.97187 1.61901,-6.41409 -1.04612,-1.44221 -6.55016,0.21069 -9.11078,-0.39944 -2.56061,-0.61014 -7.81993,-2.86064 -10.48675,-3.55188 -2.70024,-0.25694 2.40636,-5.5737594 -0.42336,-4.796019 -2.2954,-0.181771 -14.96201,3.014989 -17.39721,6.150669 -1.95864,2.522038 3.19842,2.04225 3.19842,2.04225 z"
       style="fill:#fffffc;fill-opacity:1;stroke:#000000;stroke-width:0.5;stroke-linecap:butt;stroke-linejoin:miter;stroke-miterlimit:4;stroke-dasharray:none;stroke-opacity:1" />
    <path
       style="fill:none;stroke:#000000;stroke-width:0.26499999;stroke-linecap:butt;stroke-linejoin:round;stroke-miterlimit:4;stroke-dasharray:none;stroke-opacity:1;marker-start:url(#marker1332);marker-end:url(#marker1332)"
       d="m -193.35888,25.669862 c 0,0 -0.20045,5.27857 0.66818,9.55489"
       id="path1014"
       inkscape:connector-curvature="0"
       sodipodi:nodetypes="cc" />
    <path
       sodipodi:nodetypes="cc"
       inkscape:connector-curvature="0"
       id="path1526"
       d="m -194.72921,24.557607 c 0,0 -0.42128,5.265549 0.26755,9.574487"
       style="fill:none;stroke:#000000;stroke-width:0.26499999;stroke-linecap:butt;stroke-linejoin:round;stroke-miterlimit:4;stroke-dasharray:none;stroke-opacity:1;marker-start:url(#marker1530);marker-end:url(#marker1564)" />
    <path
       style="fill:#000000;fill-opacity:1;stroke:none;stroke-width:0.26458332px;stroke-linecap:butt;stroke-linejoin:miter;stroke-opacity:1"
       d="m -193.84111,15.153441 c 0,0 -3.23642,1.984375 -2.74033,2.14974 0.66314,0.449338 9.6384,-3.449033 9.6384,-3.449033 0,0 -8.19351,2.906388 -8.31163,2.670153 -0.11812,-0.236236 1.41356,-1.37086 1.41356,-1.37086 z"
       id="path2566"
       inkscape:connector-curvature="0"
       sodipodi:nodetypes="ccccc" />
    <rect
       transform="rotate(23.984735)"
       style="opacity:1;fill:#00be00;fill-opacity:1;fill-rule:evenodd;stroke:#000000;stroke-width:4.30834818;stroke-linecap:round;stroke-linejoin:round;stroke-miterlimit:4;stroke-dasharray:none;stroke-dashoffset:0;stroke-opacity:1;paint-order:stroke markers fill"
       id="rect1498"
       width="27.843861"
       height="41.139633"
       x="43.795361"
       y="250.63774"
       ry="3.0800562" />
    <rect
       transform="rotate(23.984735)"
       ry="3.0800562"
       y="250.63774"
       x="43.795361"
       height="41.139633"
       width="27.843861"
       id="rect1500"
       style="opacity:1;fill:#00be00;fill-opacity:1;fill-rule:evenodd;stroke:#ffffff;stroke-width:3.32917762;stroke-linecap:round;stroke-linejoin:round;stroke-miterlimit:4;stroke-dasharray:none;stroke-dashoffset:0;stroke-opacity:1;paint-order:stroke markers fill" />
    <path
       style="fill:#fffffc;fill-opacity:1;stroke:#000000;stroke-width:0.37796223;stroke-linecap:butt;stroke-linejoin:miter;stroke-miterlimit:4;stroke-dasharray:none;stroke-opacity:1"
       d="m 11.141741,269.39744 c 0,0 1.25761,10.2472 1.23054,11.38978 -0.0271,1.14255 -1.02673,6.1804 -0.74221,7.1989 0.28452,1.01849 3.51805,2.29833 5.10568,-1.37947 1.5876,-3.6778 1.6174,-10.96503 1.62924,-11.4649 0.0119,-0.49987 -0.13197,-9.50603 0.52764,-10.2049 0.65962,-0.69888 -7.75089,4.46059 -7.75089,4.46059 z"
       id="path1504"
       inkscape:connector-curvature="0"
       sodipodi:nodetypes="cszcssc" />
    <path
       sodipodi:nodetypes="cszcssc"
       inkscape:connector-curvature="0"
       id="path1506"
       d="m 11.570421,271.70859 c 0,0 1.50003,10.21453 1.50003,11.35742 0,1.14288 -0.88001,6.203 -0.57144,7.21447 0.30857,1.01147 3.57152,2.21434 5.07156,-1.50004 1.50003,-3.71438 1.35717,-11.00028 1.35717,-11.50028 0,-0.50002 -0.35715,-9.50024 0.28572,-10.21455 0.64288,-0.7143 -7.64304,4.64298 -7.64304,4.64298 z"
       style="fill:#fffffc;fill-opacity:1;stroke:#000000;stroke-width:0.37796223;stroke-linecap:butt;stroke-linejoin:miter;stroke-miterlimit:4;stroke-dasharray:none;stroke-opacity:1" />
    <path
       style="fill:#fffffc;fill-opacity:1;stroke:#000000;stroke-width:0.37796223;stroke-linecap:butt;stroke-linejoin:miter;stroke-miterlimit:4;stroke-dasharray:none;stroke-opacity:1"
       d="m 12.378561,273.82996 c 0,0 1.50003,10.21453 1.50003,11.35742 0,1.14289 -0.88001,6.203 -0.57144,7.21447 0.30857,1.01147 3.57152,2.21434 5.07156,-1.50004 1.50003,-3.71438 1.35717,-11.00027 1.35717,-11.50028 0,-0.50001 -0.35715,-9.50024 0.28573,-10.21454 0.64287,-0.71431 -7.64305,4.64297 -7.64305,4.64297 z"
       id="path1508"
       inkscape:connector-curvature="0"
       sodipodi:nodetypes="cszcssc" />
    <path
       style="fill:#fffffc;fill-opacity:1;stroke:#000000;stroke-width:0.37796223;stroke-linecap:butt;stroke-linejoin:miter;stroke-miterlimit:4;stroke-dasharray:none;stroke-opacity:1"
       d="m 12.258841,256.3727 c 0,0 -1.46067,2.18364 -1.70617,3.32262 -0.39992,1.85534 0.0849,6.54693 -0.0231,7.35417 -0.10799,0.80725 2.26889,9.70945 4.05408,12.50109 2.46196,3.85 16.429175,1.76024 18.59344,0.53444 0.716299,-0.40571 0.722376,-3.09893 -1.891225,-4.43099 -2.613594,-1.33205 -7.901555,0.19438 -7.901555,0.19438 0,0 -2.89644,-1.21862 -3.67676,-2.82646 -0.74542,-1.53592 0.62204,-4.99902 0.64536,-5.27135 0.0562,-0.65615 1.9413,-4.87266 3.36162,-5.56755 1.42029,-0.69487 3.086586,-0.62996 3.086586,-0.62996 l 2.860366,-0.16723 c 0,0 5.575509,1.27054 7.241038,0.25451 1.665536,-1.01604 2.014637,-3.75836 1.223849,-4.84857 -0.790788,-1.0902 -4.951426,0.15927 -6.887061,-0.30195 -1.935628,-0.46122 -5.911278,-2.16242 -7.927188,-2.68495 -2.04118,-0.19423 1.81902,-4.21334 -0.32003,-3.62543 -1.73515,-0.1374 -11.31015,2.27911 -13.1509798,4.64944 -1.48058,1.90647 2.4177698,1.54379 2.4177598,1.54379 z"
       id="path1510"
       inkscape:connector-curvature="0"
       sodipodi:nodetypes="cccsszcssscczzsccsc" />
    <path
       sodipodi:nodetypes="cc"
       inkscape:connector-curvature="0"
       id="path1512"
       d="m 12.535721,261.60614 c 0,0 -0.15153,3.9902 0.50509,7.22277"
       style="fill:none;stroke:#000000;stroke-width:0.20031998;stroke-linecap:butt;stroke-linejoin:round;stroke-miterlimit:4;stroke-dasharray:none;stroke-opacity:1;marker-start:url(#marker1332);marker-end:url(#marker1332)" />
    <path
       style="fill:none;stroke:#000000;stroke-width:0.20031998;stroke-linecap:butt;stroke-linejoin:round;stroke-miterlimit:4;stroke-dasharray:none;stroke-opacity:1;marker-start:url(#marker1530);marker-end:url(#marker1564)"
       d="m 11.499851,260.76536 c 0,0 -0.31846,3.98036 0.20225,7.23759"
       id="path1514"
       inkscape:connector-curvature="0"
       sodipodi:nodetypes="cc" />
    <path
       sodipodi:nodetypes="ccccc"
       inkscape:connector-curvature="0"
       id="path1516"
       d="m 12.171191,253.65652 c 0,0 -2.4464898,1.50004 -2.07149,1.62504 0.50129,0.33967 7.28591,-2.60721 7.28591,-2.60721 0,0 -6.19368,2.19701 -6.28297,2.01844 -0.0893,-0.17858 1.06855,-1.03627 1.06855,-1.03627 z"
       style="fill:#000000;fill-opacity:1;stroke:none;stroke-width:0.20000501px;stroke-linecap:butt;stroke-linejoin:miter;stroke-opacity:1" />
    <text
       xml:space="preserve"
       style="font-style:normal;font-variant:normal;font-weight:normal;font-stretch:normal;font-size:27.66295815px;line-height:0.85000002;font-family:Wingdings;-inkscape-font-specification:Wingdings;letter-spacing:0px;word-spacing:0px;fill:#030000;fill-opacity:1;stroke:#050000;stroke-width:1.19200003;stroke-miterlimit:4;stroke-dasharray:none;stroke-opacity:1"
       x="-62.334961"
       y="149.31198"
       id="text1522"><tspan
         sodipodi:role="line"
         id="tspan1518"
         x="-62.334961"
         y="149.31198"
         style="font-style:normal;font-variant:normal;font-weight:normal;font-stretch:normal;font-family:'the enemigo';-inkscape-font-specification:'the enemigo';fill:#030000;fill-opacity:1;stroke:#050000;stroke-width:1.19200003;stroke-miterlimit:4;stroke-dasharray:none;stroke-opacity:1">FLASH</tspan><tspan
         id="tspan1520"
         sodipodi:role="line"
         x="-62.334961"
         y="173.16403"
         style="font-style:normal;font-variant:normal;font-weight:normal;font-stretch:normal;font-family:'the enemigo';-inkscape-font-specification:'the enemigo';fill:#030000;fill-opacity:1;stroke:#050000;stroke-width:1.19200003;stroke-miterlimit:4;stroke-dasharray:none;stroke-opacity:1">GANG</tspan></text>
    <text
       id="text1528"
       y="149.68997"
       x="-61.956985"
       style="font-style:normal;font-variant:normal;font-weight:normal;font-stretch:normal;font-size:27.66295815px;line-height:0.85000002;font-family:Wingdings;-inkscape-font-specification:Wingdings;letter-spacing:0px;word-spacing:0px;fill:#00be00;fill-opacity:1;stroke:none;stroke-width:0.69157398"
       xml:space="preserve"><tspan
         style="font-style:normal;font-variant:normal;font-weight:normal;font-stretch:normal;font-family:'the enemigo';-inkscape-font-specification:'the enemigo';fill:#00be00;fill-opacity:1;stroke-width:0.69157398"
         y="149.68997"
         x="-61.956985"
         id="tspan1524"
         sodipodi:role="line">FLASH</tspan><tspan
         id="tspan1526"
         style="font-style:normal;font-variant:normal;font-weight:normal;font-stretch:normal;font-family:'the enemigo';-inkscape-font-specification:'the enemigo';fill:#00be00;fill-opacity:1;stroke-width:0.69157398"
         y="173.54202"
         x="-61.956985"
         sodipodi:role="line">GANG</tspan></text>
  </g>
</svg>
